<svg xmlns="http://www.w3.org/2000/svg" viewBox="0 0 270 312.06"><defs><style>.cls-1{fill:none;stroke:#2993d1;stroke-miterlimit:10;stroke-width:24px;}.cls-2{fill:#58595b;}.cls-3{fill:#2a94d2;}</style></defs><title>DalvisLogo_1</title><g id="Layer_2" data-name="Layer 2"><g id="Layer_1-2" data-name="Layer 1"><path class="cls-1" d="M181.23,12h0a22.76,22.76,0,0,0-22.76,22.77v78.54h22.76A22.77,22.77,0,0,0,204,90.54V34.77A22.76,22.76,0,0,0,181.23,12Z"/><path class="cls-1" d="M111.53,204.37h0a45.52,45.52,0,0,0,45.53-45.53V113.31H111.53a45.53,45.53,0,0,0,0,91.06Z"/><path class="cls-2" d="M0,292.28v-50H22.36c15.75,0,27.45,9,27.45,25s-11.7,25.06-27.38,25.06Zm34.44-25.06c0-6.75-3.91-11.78-12-11.78H15.15v23.63h7.21C29.93,279.07,34.44,273.52,34.44,267.22Z"/><path class="cls-2" d="M114.13,292.28v-50h15.16v36.83h19v13.21Z"/><path class="cls-2" d="M205.38,292.28v-50h15.16v50Z"/><path class="cls-2" d="M225.14,285.22,233,274a23.31,23.31,0,0,0,16.13,6.45c2.85,0,5.55-.74,5.55-2.7,0-4.8-27.91.08-27.91-19.65,0-8.48,7.05-16.58,20.78-16.58,8.18,0,15.53,2.33,21.23,7l-8.1,10.72A25.3,25.3,0,0,0,246,254.24c-3,0-3.82,1-3.82,2.25,0,4.73,27.83.68,27.83,19.28,0,11-8.18,17.41-21.6,17.41C237.74,293.18,230.47,290,225.14,285.22Z"/><polygon class="cls-2" points="186.53 242.24 173.23 279.01 159.94 242.24 143.82 242.24 161.91 292.28 184.55 292.28 202.64 242.24 186.53 242.24"/><polygon class="cls-2" points="66.57 292.28 79.86 255.51 93.16 292.28 109.27 292.28 91.18 242.24 68.55 242.24 50.46 292.28 66.57 292.28"/><path class="cls-3" d="M66.55,298.87H93.13v13.19H66.55Z"/><path class="cls-3" d="M159.94,222.46h26.58v13.19H159.94Z"/></g></g></svg>